<mxfile host="app.diagrams.net" modified="2020-06-25T09:50:40.396Z" agent="5.0 (Windows NT 10.0; Win64; x64) AppleWebKit/537.36 (KHTML, like Gecko) Chrome/83.0.4103.116 Safari/537.36" etag="N3P6z3qrKrXkXt3bt-k3" version="13.3.0" type="github">
  <diagram id="HAlyzhadhLqAYwGeg6hm" name="Page-1">
    <mxGraphModel dx="870" dy="595" grid="1" gridSize="10" guides="1" tooltips="1" connect="1" arrows="1" fold="1" page="1" pageScale="1" pageWidth="2336" pageHeight="1654" background="none" math="0" shadow="0">
      <root>
        <mxCell id="0" />
        <mxCell id="1" parent="0" />
        <mxCell id="PGLoOLn-CX51Pk0NP94C-1266" style="edgeStyle=orthogonalEdgeStyle;rounded=0;orthogonalLoop=1;jettySize=auto;html=1;" parent="1" source="PGLoOLn-CX51Pk0NP94C-137" target="PGLoOLn-CX51Pk0NP94C-1222" edge="1">
          <mxGeometry relative="1" as="geometry" />
        </mxCell>
        <mxCell id="PGLoOLn-CX51Pk0NP94C-137" value="&lt;p style=&quot;margin: 0px ; margin-top: 4px ; text-align: center&quot;&gt;&lt;b&gt;PropMapper&lt;/b&gt;&lt;/p&gt;&lt;hr size=&quot;1&quot;&gt;&lt;p style=&quot;margin: 0px ; margin-left: 4px&quot;&gt;+ property&lt;/p&gt;&lt;p style=&quot;margin: 0px ; margin-left: 4px&quot;&gt;+ field&lt;/p&gt;&lt;p style=&quot;margin: 0px ; margin-left: 4px&quot;&gt;+ unit&lt;/p&gt;&lt;hr size=&quot;1&quot;&gt;&lt;p style=&quot;margin: 0px ; margin-left: 4px&quot;&gt;reflect.content()&lt;/p&gt;&lt;p style=&quot;margin: 0px ; margin-left: 4px&quot;&gt;reflect.nodeRend()&lt;/p&gt;" style="verticalAlign=top;align=left;overflow=fill;fontSize=12;fontFamily=Helvetica;html=1;rounded=0;fillColor=#ffffff;" parent="1" vertex="1">
          <mxGeometry x="910" y="1044" width="110" height="120" as="geometry" />
        </mxCell>
        <mxCell id="PGLoOLn-CX51Pk0NP94C-43" style="edgeStyle=orthogonalEdgeStyle;rounded=0;orthogonalLoop=1;jettySize=auto;html=1;" parent="1" source="svS3pJ_Lpt4c0GqLdNjL-20" target="PGLoOLn-CX51Pk0NP94C-38" edge="1">
          <mxGeometry relative="1" as="geometry" />
        </mxCell>
        <mxCell id="PGLoOLn-CX51Pk0NP94C-1274" style="edgeStyle=orthogonalEdgeStyle;rounded=0;orthogonalLoop=1;jettySize=auto;html=1;" parent="1" source="svS3pJ_Lpt4c0GqLdNjL-20" target="svS3pJ_Lpt4c0GqLdNjL-139" edge="1">
          <mxGeometry relative="1" as="geometry" />
        </mxCell>
        <mxCell id="svS3pJ_Lpt4c0GqLdNjL-20" value="&lt;span&gt;AST_Type_Register&lt;/span&gt;" style="rounded=0;whiteSpace=wrap;html=1;movable=1;resizable=1;rotatable=1;deletable=1;editable=1;connectable=1;align=left;spacing=2;verticalAlign=middle;fillColor=#f8cecc;strokeColor=#b85450;fontStyle=1" parent="1" vertex="1">
          <mxGeometry x="1030" y="861" width="120" height="30" as="geometry" />
        </mxCell>
        <mxCell id="svS3pJ_Lpt4c0GqLdNjL-35" value="&lt;span&gt;Class&lt;/span&gt;" style="rounded=0;whiteSpace=wrap;html=1;movable=1;resizable=1;rotatable=1;deletable=1;editable=1;connectable=1;align=left;spacing=2;verticalAlign=middle;fillColor=#f8cecc;strokeColor=#b85450;fontStyle=1" parent="1" vertex="1">
          <mxGeometry x="20" y="20" width="40" height="20" as="geometry" />
        </mxCell>
        <mxCell id="svS3pJ_Lpt4c0GqLdNjL-36" value="&lt;span&gt;param&lt;br&gt;&lt;/span&gt;" style="rounded=0;whiteSpace=wrap;html=1;movable=1;resizable=1;rotatable=1;deletable=1;editable=1;connectable=1;align=left;spacing=2;verticalAlign=middle;fillColor=#d5e8d4;strokeColor=#82b366;" parent="1" vertex="1">
          <mxGeometry x="20" y="50" width="50" height="20" as="geometry" />
        </mxCell>
        <mxCell id="svS3pJ_Lpt4c0GqLdNjL-37" value="Function&lt;span&gt;&lt;br&gt;&lt;/span&gt;" style="rounded=0;whiteSpace=wrap;html=1;movable=1;resizable=1;rotatable=1;deletable=1;editable=1;connectable=1;align=left;spacing=2;verticalAlign=middle;fillColor=#ffe6cc;strokeColor=#d79b00;" parent="1" vertex="1">
          <mxGeometry x="20" y="80" width="50" height="20" as="geometry" />
        </mxCell>
        <mxCell id="svS3pJ_Lpt4c0GqLdNjL-38" style="edgeStyle=orthogonalEdgeStyle;rounded=0;orthogonalLoop=1;jettySize=auto;html=1;" parent="1" source="svS3pJ_Lpt4c0GqLdNjL-39" target="svS3pJ_Lpt4c0GqLdNjL-45" edge="1">
          <mxGeometry relative="1" as="geometry" />
        </mxCell>
        <mxCell id="svS3pJ_Lpt4c0GqLdNjL-39" value="ASTRender" style="text;html=1;align=center;verticalAlign=middle;resizable=0;points=[];autosize=1;fillColor=#ffe6cc;strokeColor=#d79b00;" parent="1" vertex="1">
          <mxGeometry x="345" y="360" width="80" height="20" as="geometry" />
        </mxCell>
        <mxCell id="svS3pJ_Lpt4c0GqLdNjL-40" style="edgeStyle=orthogonalEdgeStyle;rounded=0;orthogonalLoop=1;jettySize=auto;html=1;" parent="1" source="svS3pJ_Lpt4c0GqLdNjL-41" target="svS3pJ_Lpt4c0GqLdNjL-39" edge="1">
          <mxGeometry relative="1" as="geometry" />
        </mxCell>
        <mxCell id="svS3pJ_Lpt4c0GqLdNjL-41" value="ASTunit" style="text;html=1;align=center;verticalAlign=middle;resizable=0;points=[];autosize=1;fillColor=#d5e8d4;strokeColor=#82b366;" parent="1" vertex="1">
          <mxGeometry x="240" y="360" width="60" height="20" as="geometry" />
        </mxCell>
        <mxCell id="svS3pJ_Lpt4c0GqLdNjL-42" style="edgeStyle=orthogonalEdgeStyle;rounded=0;orthogonalLoop=1;jettySize=auto;html=1;entryX=0.022;entryY=0.51;entryDx=0;entryDy=0;entryPerimeter=0;" parent="1" source="svS3pJ_Lpt4c0GqLdNjL-45" target="svS3pJ_Lpt4c0GqLdNjL-49" edge="1">
          <mxGeometry relative="1" as="geometry" />
        </mxCell>
        <mxCell id="svS3pJ_Lpt4c0GqLdNjL-44" style="edgeStyle=orthogonalEdgeStyle;rounded=0;orthogonalLoop=1;jettySize=auto;html=1;entryX=0.006;entryY=0.488;entryDx=0;entryDy=0;entryPerimeter=0;" parent="1" source="svS3pJ_Lpt4c0GqLdNjL-45" target="svS3pJ_Lpt4c0GqLdNjL-50" edge="1">
          <mxGeometry relative="1" as="geometry" />
        </mxCell>
        <mxCell id="svS3pJ_Lpt4c0GqLdNjL-60" style="edgeStyle=orthogonalEdgeStyle;rounded=0;orthogonalLoop=1;jettySize=auto;html=1;" parent="1" source="svS3pJ_Lpt4c0GqLdNjL-45" target="svS3pJ_Lpt4c0GqLdNjL-47" edge="1">
          <mxGeometry relative="1" as="geometry" />
        </mxCell>
        <mxCell id="svS3pJ_Lpt4c0GqLdNjL-45" value="return" style="text;html=1;align=center;verticalAlign=middle;resizable=0;points=[];autosize=1;fillColor=#f5f5f5;strokeColor=#666666;fontColor=#333333;" parent="1" vertex="1">
          <mxGeometry x="460" y="360" width="50" height="20" as="geometry" />
        </mxCell>
        <mxCell id="svS3pJ_Lpt4c0GqLdNjL-46" style="edgeStyle=orthogonalEdgeStyle;rounded=0;orthogonalLoop=1;jettySize=auto;html=1;entryX=0;entryY=0.5;entryDx=0;entryDy=0;dashed=1;" parent="1" source="svS3pJ_Lpt4c0GqLdNjL-47" target="svS3pJ_Lpt4c0GqLdNjL-14" edge="1">
          <mxGeometry relative="1" as="geometry" />
        </mxCell>
        <mxCell id="svS3pJ_Lpt4c0GqLdNjL-47" value="head" style="text;html=1;align=center;verticalAlign=middle;resizable=0;points=[];autosize=1;strokeColor=#000000;" parent="1" vertex="1">
          <mxGeometry x="620" y="360" width="40" height="20" as="geometry" />
        </mxCell>
        <mxCell id="svS3pJ_Lpt4c0GqLdNjL-48" style="edgeStyle=orthogonalEdgeStyle;rounded=0;orthogonalLoop=1;jettySize=auto;html=1;entryX=0;entryY=0.5;entryDx=0;entryDy=0;dashed=1;" parent="1" source="svS3pJ_Lpt4c0GqLdNjL-49" target="svS3pJ_Lpt4c0GqLdNjL-16" edge="1">
          <mxGeometry relative="1" as="geometry" />
        </mxCell>
        <mxCell id="svS3pJ_Lpt4c0GqLdNjL-49" value="body" style="text;html=1;align=center;verticalAlign=middle;resizable=0;points=[];autosize=1;strokeColor=#000000;" parent="1" vertex="1">
          <mxGeometry x="680" y="387" width="40" height="20" as="geometry" />
        </mxCell>
        <mxCell id="svS3pJ_Lpt4c0GqLdNjL-50" value="param" style="text;html=1;align=center;verticalAlign=middle;resizable=0;points=[];autosize=1;strokeColor=#000000;" parent="1" vertex="1">
          <mxGeometry x="560" y="330" width="50" height="20" as="geometry" />
        </mxCell>
        <mxCell id="svS3pJ_Lpt4c0GqLdNjL-85" style="edgeStyle=orthogonalEdgeStyle;rounded=0;orthogonalLoop=1;jettySize=auto;html=1;dashed=1;" parent="1" source="svS3pJ_Lpt4c0GqLdNjL-69" target="svS3pJ_Lpt4c0GqLdNjL-47" edge="1">
          <mxGeometry relative="1" as="geometry" />
        </mxCell>
        <mxCell id="svS3pJ_Lpt4c0GqLdNjL-86" style="edgeStyle=orthogonalEdgeStyle;rounded=0;orthogonalLoop=1;jettySize=auto;html=1;dashed=1;" parent="1" source="svS3pJ_Lpt4c0GqLdNjL-68" target="svS3pJ_Lpt4c0GqLdNjL-49" edge="1">
          <mxGeometry relative="1" as="geometry" />
        </mxCell>
        <mxCell id="svS3pJ_Lpt4c0GqLdNjL-87" style="edgeStyle=orthogonalEdgeStyle;rounded=0;orthogonalLoop=1;jettySize=auto;html=1;dashed=1;" parent="1" source="svS3pJ_Lpt4c0GqLdNjL-70" target="svS3pJ_Lpt4c0GqLdNjL-50" edge="1">
          <mxGeometry relative="1" as="geometry" />
        </mxCell>
        <mxCell id="svS3pJ_Lpt4c0GqLdNjL-90" value="" style="group;rounded=1;shadow=0;strokeColor=#6c8ebf;fillColor=#dae8fc;glass=0;opacity=50;spacing=10;spacingTop=10;spacingLeft=10;" parent="1" vertex="1" connectable="0">
          <mxGeometry x="360" y="150" width="240" height="117.43" as="geometry" />
        </mxCell>
        <mxCell id="svS3pJ_Lpt4c0GqLdNjL-66" value="unitRender" style="text;html=1;align=center;verticalAlign=middle;resizable=0;points=[];autosize=1;fillColor=#ffffff;strokeColor=#000000;" parent="svS3pJ_Lpt4c0GqLdNjL-90" vertex="1">
          <mxGeometry x="23.606187215881143" y="44.28625304136246" width="70" height="20" as="geometry" />
        </mxCell>
        <mxCell id="svS3pJ_Lpt4c0GqLdNjL-67" value="divFrame" style="text;html=1;align=center;verticalAlign=middle;resizable=0;points=[];autosize=1;fillColor=#d5e8d4;strokeColor=#82b366;" parent="svS3pJ_Lpt4c0GqLdNjL-90" vertex="1">
          <mxGeometry x="140.9563071712347" width="70" height="20" as="geometry" />
        </mxCell>
        <mxCell id="svS3pJ_Lpt4c0GqLdNjL-71" style="edgeStyle=orthogonalEdgeStyle;rounded=0;orthogonalLoop=1;jettySize=auto;html=1;" parent="svS3pJ_Lpt4c0GqLdNjL-90" source="svS3pJ_Lpt4c0GqLdNjL-66" target="svS3pJ_Lpt4c0GqLdNjL-67" edge="1">
          <mxGeometry relative="1" as="geometry">
            <Array as="points">
              <mxPoint x="113.31311982278253" y="54.00065693430656" />
              <mxPoint x="113.31311982278253" y="10.000121654501214" />
            </Array>
          </mxGeometry>
        </mxCell>
        <mxCell id="svS3pJ_Lpt4c0GqLdNjL-68" value="text" style="text;html=1;align=center;verticalAlign=middle;resizable=0;points=[];autosize=1;fillColor=#d5e8d4;strokeColor=#82b366;" parent="svS3pJ_Lpt4c0GqLdNjL-90" vertex="1">
          <mxGeometry x="140.9563071712347" y="34.42899026763991" width="40" height="20" as="geometry" />
        </mxCell>
        <mxCell id="svS3pJ_Lpt4c0GqLdNjL-72" style="edgeStyle=orthogonalEdgeStyle;rounded=0;orthogonalLoop=1;jettySize=auto;html=1;" parent="svS3pJ_Lpt4c0GqLdNjL-90" source="svS3pJ_Lpt4c0GqLdNjL-66" target="svS3pJ_Lpt4c0GqLdNjL-68" edge="1">
          <mxGeometry relative="1" as="geometry">
            <Array as="points">
              <mxPoint x="113.31311982278253" y="54.00065693430656" />
              <mxPoint x="113.31311982278253" y="41.00049878345498" />
            </Array>
          </mxGeometry>
        </mxCell>
        <mxCell id="svS3pJ_Lpt4c0GqLdNjL-69" value="head" style="text;html=1;align=center;verticalAlign=middle;resizable=0;points=[];autosize=1;fillColor=#d5e8d4;strokeColor=#82b366;" parent="svS3pJ_Lpt4c0GqLdNjL-90" vertex="1">
          <mxGeometry x="140.9563071712347" y="64.28649635036489" width="40" height="20" as="geometry" />
        </mxCell>
        <mxCell id="svS3pJ_Lpt4c0GqLdNjL-73" style="edgeStyle=orthogonalEdgeStyle;rounded=0;orthogonalLoop=1;jettySize=auto;html=1;" parent="svS3pJ_Lpt4c0GqLdNjL-90" source="svS3pJ_Lpt4c0GqLdNjL-66" target="svS3pJ_Lpt4c0GqLdNjL-69" edge="1">
          <mxGeometry relative="1" as="geometry">
            <Array as="points">
              <mxPoint x="113.31311982278253" y="54.00065693430656" />
              <mxPoint x="113.31311982278253" y="72.00087591240874" />
            </Array>
          </mxGeometry>
        </mxCell>
        <mxCell id="svS3pJ_Lpt4c0GqLdNjL-70" value="param" style="text;html=1;align=center;verticalAlign=middle;resizable=0;points=[];autosize=1;fillColor=#d5e8d4;strokeColor=#82b366;" parent="svS3pJ_Lpt4c0GqLdNjL-90" vertex="1">
          <mxGeometry x="140.9563071712347" y="97.42975669099756" width="50" height="20" as="geometry" />
        </mxCell>
        <mxCell id="svS3pJ_Lpt4c0GqLdNjL-74" style="edgeStyle=orthogonalEdgeStyle;rounded=0;orthogonalLoop=1;jettySize=auto;html=1;" parent="svS3pJ_Lpt4c0GqLdNjL-90" source="svS3pJ_Lpt4c0GqLdNjL-66" target="svS3pJ_Lpt4c0GqLdNjL-70" edge="1">
          <mxGeometry relative="1" as="geometry">
            <Array as="points">
              <mxPoint x="113.31311982278253" y="54.00065693430656" />
              <mxPoint x="113.31311982278253" y="107.001301703163" />
            </Array>
          </mxGeometry>
        </mxCell>
        <mxCell id="svS3pJ_Lpt4c0GqLdNjL-108" value="get body units render" style="text;html=1;align=center;verticalAlign=middle;resizable=0;points=[];autosize=1;" parent="1" vertex="1">
          <mxGeometry x="920" y="407" width="130" height="20" as="geometry" />
        </mxCell>
        <mxCell id="svS3pJ_Lpt4c0GqLdNjL-16" value="&lt;span&gt;Body&lt;br&gt;&lt;/span&gt;" style="rounded=0;whiteSpace=wrap;html=1;movable=1;resizable=1;rotatable=1;deletable=1;editable=1;connectable=1;align=left;spacing=2;verticalAlign=middle;" parent="1" vertex="1">
          <mxGeometry x="860" y="386.72" width="40" height="20" as="geometry" />
        </mxCell>
        <mxCell id="svS3pJ_Lpt4c0GqLdNjL-15" style="edgeStyle=orthogonalEdgeStyle;rounded=0;orthogonalLoop=1;jettySize=auto;html=1;dashed=1;" parent="1" source="svS3pJ_Lpt4c0GqLdNjL-16" edge="1">
          <mxGeometry relative="1" as="geometry">
            <mxPoint x="1160" y="398.99999999999955" as="targetPoint" />
          </mxGeometry>
        </mxCell>
        <mxCell id="svS3pJ_Lpt4c0GqLdNjL-14" value="&lt;span&gt;Head&lt;br&gt;&lt;/span&gt;" style="rounded=0;whiteSpace=wrap;html=1;movable=1;resizable=1;rotatable=1;deletable=1;editable=1;connectable=1;align=left;spacing=2;verticalAlign=middle;" parent="1" vertex="1">
          <mxGeometry x="860" y="360.72" width="40" height="20" as="geometry" />
        </mxCell>
        <mxCell id="svS3pJ_Lpt4c0GqLdNjL-13" style="edgeStyle=orthogonalEdgeStyle;rounded=0;orthogonalLoop=1;jettySize=auto;html=1;entryX=0.005;entryY=0.29;entryDx=0;entryDy=0;entryPerimeter=0;dashed=1;" parent="1" source="svS3pJ_Lpt4c0GqLdNjL-14" edge="1">
          <mxGeometry relative="1" as="geometry">
            <mxPoint x="1160.6999999999998" y="380.0999999999999" as="targetPoint" />
          </mxGeometry>
        </mxCell>
        <mxCell id="svS3pJ_Lpt4c0GqLdNjL-139" value="structure" style="text;html=1;align=center;verticalAlign=middle;resizable=0;points=[];autosize=1;fillColor=#d5e8d4;strokeColor=#82b366;" parent="1" vertex="1">
          <mxGeometry x="1155" y="910" width="60" height="20" as="geometry" />
        </mxCell>
        <mxCell id="PGLoOLn-CX51Pk0NP94C-36" style="edgeStyle=orthogonalEdgeStyle;rounded=0;orthogonalLoop=1;jettySize=auto;html=1;" parent="1" source="PGLoOLn-CX51Pk0NP94C-28" target="PGLoOLn-CX51Pk0NP94C-1214" edge="1">
          <mxGeometry relative="1" as="geometry">
            <mxPoint x="820" y="850" as="targetPoint" />
          </mxGeometry>
        </mxCell>
        <mxCell id="PGLoOLn-CX51Pk0NP94C-37" style="edgeStyle=orthogonalEdgeStyle;rounded=0;orthogonalLoop=1;jettySize=auto;html=1;" parent="1" source="PGLoOLn-CX51Pk0NP94C-28" target="svS3pJ_Lpt4c0GqLdNjL-20" edge="1">
          <mxGeometry relative="1" as="geometry" />
        </mxCell>
        <mxCell id="PGLoOLn-CX51Pk0NP94C-140" value="" style="html=1;verticalLabelPosition=bottom;align=center;labelBackgroundColor=#ffffff;verticalAlign=top;strokeWidth=2;strokeColor=#FF6666;shadow=0;dashed=0;shape=mxgraph.ios7.icons.flag;rounded=0;fillColor=#FF6666;" parent="1" vertex="1">
          <mxGeometry x="960" y="1421" width="30" height="30" as="geometry" />
        </mxCell>
        <mxCell id="PGLoOLn-CX51Pk0NP94C-165" style="edgeStyle=orthogonalEdgeStyle;rounded=0;orthogonalLoop=1;jettySize=auto;html=1;" parent="1" source="PGLoOLn-CX51Pk0NP94C-158" target="PGLoOLn-CX51Pk0NP94C-38" edge="1">
          <mxGeometry relative="1" as="geometry" />
        </mxCell>
        <mxCell id="PGLoOLn-CX51Pk0NP94C-169" style="edgeStyle=orthogonalEdgeStyle;rounded=0;orthogonalLoop=1;jettySize=auto;html=1;" parent="1" source="PGLoOLn-CX51Pk0NP94C-153" target="PGLoOLn-CX51Pk0NP94C-158" edge="1">
          <mxGeometry relative="1" as="geometry" />
        </mxCell>
        <mxCell id="PGLoOLn-CX51Pk0NP94C-1269" value="" style="group" parent="1" vertex="1" connectable="0">
          <mxGeometry x="1190" y="120" width="605" height="341" as="geometry" />
        </mxCell>
        <mxCell id="svS3pJ_Lpt4c0GqLdNjL-91" value="Return" style="text;html=1;align=center;verticalAlign=middle;resizable=0;points=[];autosize=1;fillColor=#f5f5f5;strokeColor=#666666;fontColor=#333333;" parent="PGLoOLn-CX51Pk0NP94C-1269" vertex="1">
          <mxGeometry x="45" y="231" width="50" height="20" as="geometry" />
        </mxCell>
        <mxCell id="svS3pJ_Lpt4c0GqLdNjL-92" value="Frame" style="text;html=1;align=center;verticalAlign=middle;resizable=0;points=[];autosize=1;strokeColor=#000000;" parent="PGLoOLn-CX51Pk0NP94C-1269" vertex="1">
          <mxGeometry x="45" y="277" width="50" height="20" as="geometry" />
        </mxCell>
        <mxCell id="svS3pJ_Lpt4c0GqLdNjL-93" style="edgeStyle=orthogonalEdgeStyle;rounded=0;orthogonalLoop=1;jettySize=auto;html=1;" parent="PGLoOLn-CX51Pk0NP94C-1269" source="svS3pJ_Lpt4c0GqLdNjL-91" target="svS3pJ_Lpt4c0GqLdNjL-92" edge="1">
          <mxGeometry relative="1" as="geometry" />
        </mxCell>
        <mxCell id="svS3pJ_Lpt4c0GqLdNjL-6" value="&lt;span&gt;sM.presentMode&lt;br&gt;&lt;/span&gt;" style="rounded=0;whiteSpace=wrap;html=1;movable=1;resizable=1;rotatable=1;deletable=1;editable=1;connectable=1;align=left;spacing=2;verticalAlign=middle;" parent="PGLoOLn-CX51Pk0NP94C-1269" vertex="1">
          <mxGeometry x="90" width="100" height="20" as="geometry" />
        </mxCell>
        <mxCell id="svS3pJ_Lpt4c0GqLdNjL-7" value="&lt;span&gt;unitMode(Default)&lt;br&gt;&lt;/span&gt;" style="rounded=0;whiteSpace=wrap;html=1;movable=1;resizable=1;rotatable=1;deletable=1;editable=1;connectable=1;align=left;spacing=2;verticalAlign=middle;" parent="PGLoOLn-CX51Pk0NP94C-1269" vertex="1">
          <mxGeometry x="20" y="60" width="100" height="20" as="geometry" />
        </mxCell>
        <mxCell id="svS3pJ_Lpt4c0GqLdNjL-8" style="edgeStyle=orthogonalEdgeStyle;rounded=0;orthogonalLoop=1;jettySize=auto;html=1;entryX=0.633;entryY=-0.019;entryDx=0;entryDy=0;entryPerimeter=0;" parent="PGLoOLn-CX51Pk0NP94C-1269" source="svS3pJ_Lpt4c0GqLdNjL-6" target="svS3pJ_Lpt4c0GqLdNjL-7" edge="1">
          <mxGeometry relative="1" as="geometry" />
        </mxCell>
        <mxCell id="svS3pJ_Lpt4c0GqLdNjL-94" style="edgeStyle=orthogonalEdgeStyle;rounded=0;orthogonalLoop=1;jettySize=auto;html=1;" parent="PGLoOLn-CX51Pk0NP94C-1269" source="svS3pJ_Lpt4c0GqLdNjL-12" target="svS3pJ_Lpt4c0GqLdNjL-91" edge="1">
          <mxGeometry relative="1" as="geometry" />
        </mxCell>
        <mxCell id="svS3pJ_Lpt4c0GqLdNjL-12" value="Generate Frame&lt;br&gt;Append Head&lt;br&gt;append Body(process)&lt;br&gt;bind Id&amp;nbsp;&lt;br&gt;frame = all dom&lt;br&gt;return frame" style="text;html=1;align=center;verticalAlign=middle;resizable=0;points=[];autosize=1;" parent="PGLoOLn-CX51Pk0NP94C-1269" vertex="1">
          <mxGeometry y="111" width="140" height="90" as="geometry" />
        </mxCell>
        <mxCell id="svS3pJ_Lpt4c0GqLdNjL-99" style="edgeStyle=orthogonalEdgeStyle;rounded=0;orthogonalLoop=1;jettySize=auto;html=1;" parent="PGLoOLn-CX51Pk0NP94C-1269" source="svS3pJ_Lpt4c0GqLdNjL-7" edge="1">
          <mxGeometry relative="1" as="geometry">
            <mxPoint x="70" y="99.99999999999955" as="targetPoint" />
          </mxGeometry>
        </mxCell>
        <mxCell id="PGLoOLn-CX51Pk0NP94C-117" value="ASTRender.head" style="text;html=1;align=center;verticalAlign=middle;resizable=0;points=[];autosize=1;" parent="PGLoOLn-CX51Pk0NP94C-1269" vertex="1">
          <mxGeometry x="360" y="85" width="110" height="20" as="geometry" />
        </mxCell>
        <mxCell id="PGLoOLn-CX51Pk0NP94C-128" value="ASTRender.Body" style="text;html=1;align=center;verticalAlign=middle;resizable=0;points=[];autosize=1;" parent="PGLoOLn-CX51Pk0NP94C-1269" vertex="1">
          <mxGeometry x="360" y="111" width="110" height="20" as="geometry" />
        </mxCell>
        <mxCell id="PGLoOLn-CX51Pk0NP94C-130" value="retrun Frame" style="text;html=1;align=center;verticalAlign=middle;resizable=0;points=[];autosize=1;fontColor=#333333;strokeColor=#666666;fillColor=#f5f5f5;" parent="PGLoOLn-CX51Pk0NP94C-1269" vertex="1">
          <mxGeometry x="190" y="191" width="80" height="20" as="geometry" />
        </mxCell>
        <mxCell id="PGLoOLn-CX51Pk0NP94C-132" style="edgeStyle=orthogonalEdgeStyle;rounded=0;orthogonalLoop=1;jettySize=auto;html=1;" parent="PGLoOLn-CX51Pk0NP94C-1269" source="PGLoOLn-CX51Pk0NP94C-92" edge="1">
          <mxGeometry relative="1" as="geometry">
            <mxPoint x="230" y="179.99999999999955" as="targetPoint" />
          </mxGeometry>
        </mxCell>
        <mxCell id="PGLoOLn-CX51Pk0NP94C-92" value="BatteryMode(Current)" style="swimlane;fontStyle=0;childLayout=stackLayout;horizontal=1;startSize=22;horizontalStack=0;resizeParent=1;resizeParentMax=0;resizeLast=0;collapsible=1;marginBottom=0;align=center;fontSize=14;rounded=0;html=1;fillColor=#ffffff;" parent="PGLoOLn-CX51Pk0NP94C-1269" vertex="1">
          <mxGeometry x="150" y="60" width="160" height="74" as="geometry" />
        </mxCell>
        <mxCell id="PGLoOLn-CX51Pk0NP94C-94" value="Frame" style="text;strokeColor=none;fillColor=#ffffff;spacingLeft=4;spacingRight=4;overflow=hidden;rotatable=0;points=[[0,0.5],[1,0.5]];portConstraint=eastwest;fontSize=12;" parent="PGLoOLn-CX51Pk0NP94C-92" vertex="1">
          <mxGeometry y="22" width="160" height="26" as="geometry" />
        </mxCell>
        <mxCell id="PGLoOLn-CX51Pk0NP94C-95" value="Body" style="text;strokeColor=none;fillColor=#ffffff;spacingLeft=4;spacingRight=4;overflow=hidden;rotatable=0;points=[[0,0.5],[1,0.5]];portConstraint=eastwest;fontSize=12;" parent="PGLoOLn-CX51Pk0NP94C-92" vertex="1">
          <mxGeometry y="48" width="160" height="26" as="geometry" />
        </mxCell>
        <mxCell id="PGLoOLn-CX51Pk0NP94C-118" style="edgeStyle=orthogonalEdgeStyle;rounded=0;orthogonalLoop=1;jettySize=auto;html=1;" parent="PGLoOLn-CX51Pk0NP94C-1269" source="PGLoOLn-CX51Pk0NP94C-117" target="PGLoOLn-CX51Pk0NP94C-94" edge="1">
          <mxGeometry relative="1" as="geometry" />
        </mxCell>
        <mxCell id="PGLoOLn-CX51Pk0NP94C-129" style="edgeStyle=orthogonalEdgeStyle;rounded=0;orthogonalLoop=1;jettySize=auto;html=1;" parent="PGLoOLn-CX51Pk0NP94C-1269" source="PGLoOLn-CX51Pk0NP94C-128" target="PGLoOLn-CX51Pk0NP94C-95" edge="1">
          <mxGeometry relative="1" as="geometry" />
        </mxCell>
        <mxCell id="PGLoOLn-CX51Pk0NP94C-133" style="edgeStyle=orthogonalEdgeStyle;rounded=0;orthogonalLoop=1;jettySize=auto;html=1;entryX=0.5;entryY=0;entryDx=0;entryDy=0;" parent="PGLoOLn-CX51Pk0NP94C-1269" source="svS3pJ_Lpt4c0GqLdNjL-6" target="PGLoOLn-CX51Pk0NP94C-92" edge="1">
          <mxGeometry relative="1" as="geometry">
            <Array as="points">
              <mxPoint x="140" y="40" />
              <mxPoint x="230" y="40" />
            </Array>
          </mxGeometry>
        </mxCell>
        <mxCell id="PGLoOLn-CX51Pk0NP94C-1270" value="" style="whiteSpace=wrap;html=1;rounded=0;align=left;fillColor=none;" parent="PGLoOLn-CX51Pk0NP94C-1269" vertex="1">
          <mxGeometry x="5" y="1" width="475" height="340" as="geometry" />
        </mxCell>
        <mxCell id="svS3pJ_Lpt4c0GqLdNjL-103" value="Return" style="text;html=1;align=center;verticalAlign=middle;resizable=0;points=[];autosize=1;fillColor=#f5f5f5;strokeColor=#666666;fontColor=#333333;" parent="PGLoOLn-CX51Pk0NP94C-1269" vertex="1">
          <mxGeometry x="45" y="310" width="50" height="20" as="geometry" />
        </mxCell>
        <mxCell id="svS3pJ_Lpt4c0GqLdNjL-104" style="edgeStyle=orthogonalEdgeStyle;rounded=0;orthogonalLoop=1;jettySize=auto;html=1;" parent="PGLoOLn-CX51Pk0NP94C-1269" source="svS3pJ_Lpt4c0GqLdNjL-92" target="svS3pJ_Lpt4c0GqLdNjL-103" edge="1">
          <mxGeometry relative="1" as="geometry" />
        </mxCell>
        <mxCell id="PGLoOLn-CX51Pk0NP94C-28" value="TypeMarker" style="swimlane;fontStyle=0;childLayout=stackLayout;horizontal=1;startSize=22;horizontalStack=0;resizeParent=1;resizeParentMax=0;resizeLast=0;collapsible=1;marginBottom=0;align=center;fontSize=14;rounded=0;html=1;fillColor=#ffffff;" parent="1" vertex="1">
          <mxGeometry x="1020" y="614" width="140" height="178" as="geometry" />
        </mxCell>
        <mxCell id="PGLoOLn-CX51Pk0NP94C-30" value="function" style="text;strokeColor=none;fillColor=#ffffff;spacingLeft=4;spacingRight=4;overflow=hidden;rotatable=0;points=[[0,0.5],[1,0.5]];portConstraint=eastwest;fontSize=12;" parent="PGLoOLn-CX51Pk0NP94C-28" vertex="1">
          <mxGeometry y="22" width="140" height="26" as="geometry" />
        </mxCell>
        <mxCell id="PGLoOLn-CX51Pk0NP94C-29" value="class" style="text;strokeColor=none;fillColor=#ffffff;spacingLeft=4;spacingRight=4;overflow=hidden;rotatable=0;points=[[0,0.5],[1,0.5]];portConstraint=eastwest;fontSize=12;" parent="PGLoOLn-CX51Pk0NP94C-28" vertex="1">
          <mxGeometry y="48" width="140" height="26" as="geometry" />
        </mxCell>
        <mxCell id="PGLoOLn-CX51Pk0NP94C-31" value="variable" style="text;strokeColor=none;fillColor=#ffffff;spacingLeft=4;spacingRight=4;overflow=hidden;rotatable=0;points=[[0,0.5],[1,0.5]];portConstraint=eastwest;fontSize=12;" parent="PGLoOLn-CX51Pk0NP94C-28" vertex="1">
          <mxGeometry y="74" width="140" height="26" as="geometry" />
        </mxCell>
        <mxCell id="PGLoOLn-CX51Pk0NP94C-34" value="description" style="text;strokeColor=none;fillColor=#ffffff;spacingLeft=4;spacingRight=4;overflow=hidden;rotatable=0;points=[[0,0.5],[1,0.5]];portConstraint=eastwest;fontSize=12;" parent="PGLoOLn-CX51Pk0NP94C-28" vertex="1">
          <mxGeometry y="100" width="140" height="26" as="geometry" />
        </mxCell>
        <mxCell id="PGLoOLn-CX51Pk0NP94C-35" value="annotation" style="text;strokeColor=none;fillColor=#ffffff;spacingLeft=4;spacingRight=4;overflow=hidden;rotatable=0;points=[[0,0.5],[1,0.5]];portConstraint=eastwest;fontSize=12;" parent="PGLoOLn-CX51Pk0NP94C-28" vertex="1">
          <mxGeometry y="126" width="140" height="26" as="geometry" />
        </mxCell>
        <mxCell id="CT4W2SYQuJkO0G9TFjYu-6" value="JSDoc" style="text;strokeColor=none;fillColor=#ffffff;spacingLeft=4;spacingRight=4;overflow=hidden;rotatable=0;points=[[0,0.5],[1,0.5]];portConstraint=eastwest;fontSize=12;" parent="PGLoOLn-CX51Pk0NP94C-28" vertex="1">
          <mxGeometry y="152" width="140" height="26" as="geometry" />
        </mxCell>
        <mxCell id="PGLoOLn-CX51Pk0NP94C-1272" style="edgeStyle=orthogonalEdgeStyle;rounded=0;orthogonalLoop=1;jettySize=auto;html=1;" parent="1" source="PGLoOLn-CX51Pk0NP94C-1271" target="PGLoOLn-CX51Pk0NP94C-1246" edge="1">
          <mxGeometry relative="1" as="geometry" />
        </mxCell>
        <mxCell id="PGLoOLn-CX51Pk0NP94C-1273" style="edgeStyle=orthogonalEdgeStyle;rounded=0;orthogonalLoop=1;jettySize=auto;html=1;" parent="1" source="PGLoOLn-CX51Pk0NP94C-1271" target="PGLoOLn-CX51Pk0NP94C-137" edge="1">
          <mxGeometry relative="1" as="geometry" />
        </mxCell>
        <mxCell id="PGLoOLn-CX51Pk0NP94C-1271" value="let Frame&lt;br&gt;append nodes from properties list" style="text;html=1;align=center;verticalAlign=middle;resizable=0;points=[];autosize=1;" parent="1" vertex="1">
          <mxGeometry x="640" y="1089" width="190" height="30" as="geometry" />
        </mxCell>
        <mxCell id="PGLoOLn-CX51Pk0NP94C-1275" style="edgeStyle=orthogonalEdgeStyle;rounded=0;orthogonalLoop=1;jettySize=auto;html=1;" parent="1" source="PGLoOLn-CX51Pk0NP94C-1212" target="svS3pJ_Lpt4c0GqLdNjL-108" edge="1">
          <mxGeometry relative="1" as="geometry" />
        </mxCell>
        <mxCell id="1b6kIp3mD8NswqyAjslB-1" style="edgeStyle=orthogonalEdgeStyle;rounded=0;orthogonalLoop=1;jettySize=auto;html=1;entryX=1;entryY=0.908;entryDx=0;entryDy=0;entryPerimeter=0;" parent="1" source="PGLoOLn-CX51Pk0NP94C-158" target="PGLoOLn-CX51Pk0NP94C-137" edge="1">
          <mxGeometry relative="1" as="geometry" />
        </mxCell>
        <mxCell id="PGLoOLn-CX51Pk0NP94C-1207" value="" style="html=1;whiteSpace=wrap;container=1;collapsible=0;childLayout=tableLayout;" parent="1" vertex="1">
          <mxGeometry x="510" y="620" width="130" height="440" as="geometry" />
        </mxCell>
        <mxCell id="PGLoOLn-CX51Pk0NP94C-1208" value="" style="shape=partialRectangle;html=1;whiteSpace=wrap;collapsible=0;dropTarget=0;pointerEvents=0;fillColor=none;strokeColor=none;points=[[0,0.5],[1,0.5]];portConstraint=eastwest;" parent="PGLoOLn-CX51Pk0NP94C-1207" vertex="1">
          <mxGeometry width="130" height="20" as="geometry" />
        </mxCell>
        <mxCell id="PGLoOLn-CX51Pk0NP94C-1209" value="&lt;b&gt;AST_Unit&lt;/b&gt;" style="shape=partialRectangle;html=1;whiteSpace=wrap;connectable=0;fillColor=none;" parent="PGLoOLn-CX51Pk0NP94C-1208" vertex="1">
          <mxGeometry width="130" height="20" as="geometry" />
        </mxCell>
        <mxCell id="PGLoOLn-CX51Pk0NP94C-1210" value="" style="shape=partialRectangle;html=1;whiteSpace=wrap;collapsible=0;dropTarget=0;pointerEvents=0;fillColor=none;strokeColor=none;points=[[0,0.5],[1,0.5]];portConstraint=eastwest;align=left;spacingLeft=10;" parent="PGLoOLn-CX51Pk0NP94C-1207" vertex="1">
          <mxGeometry y="20" width="130" height="20" as="geometry" />
        </mxCell>
        <mxCell id="PGLoOLn-CX51Pk0NP94C-1211" value="+ body_content[]" style="shape=partialRectangle;html=1;whiteSpace=wrap;connectable=0;fillColor=none;align=left;spacingLeft=10;" parent="PGLoOLn-CX51Pk0NP94C-1210" vertex="1">
          <mxGeometry width="130" height="20" as="geometry" />
        </mxCell>
        <mxCell id="PGLoOLn-CX51Pk0NP94C-1212" value="" style="shape=partialRectangle;html=1;whiteSpace=wrap;collapsible=0;dropTarget=0;pointerEvents=0;fillColor=none;strokeColor=none;points=[[0,0.5],[1,0.5]];portConstraint=eastwest;align=left;spacingLeft=10;" parent="PGLoOLn-CX51Pk0NP94C-1207" vertex="1">
          <mxGeometry y="40" width="130" height="20" as="geometry" />
        </mxCell>
        <mxCell id="PGLoOLn-CX51Pk0NP94C-1213" value="+ body[]" style="shape=partialRectangle;html=1;whiteSpace=wrap;connectable=0;fillColor=none;align=left;spacingLeft=10;" parent="PGLoOLn-CX51Pk0NP94C-1212" vertex="1">
          <mxGeometry width="130" height="20" as="geometry" />
        </mxCell>
        <mxCell id="PGLoOLn-CX51Pk0NP94C-1214" value="" style="shape=partialRectangle;html=1;whiteSpace=wrap;collapsible=0;dropTarget=0;pointerEvents=0;fillColor=none;strokeColor=none;points=[[0,0.5],[1,0.5]];portConstraint=eastwest;align=left;spacingLeft=10;" parent="PGLoOLn-CX51Pk0NP94C-1207" vertex="1">
          <mxGeometry y="60" width="130" height="20" as="geometry" />
        </mxCell>
        <mxCell id="PGLoOLn-CX51Pk0NP94C-1215" value="+ type" style="shape=partialRectangle;html=1;whiteSpace=wrap;connectable=0;fillColor=none;align=left;spacingLeft=10;" parent="PGLoOLn-CX51Pk0NP94C-1214" vertex="1">
          <mxGeometry width="130" height="20" as="geometry" />
        </mxCell>
        <mxCell id="PGLoOLn-CX51Pk0NP94C-1216" value="" style="shape=partialRectangle;html=1;whiteSpace=wrap;collapsible=0;dropTarget=0;pointerEvents=0;fillColor=none;strokeColor=none;points=[[0,0.5],[1,0.5]];portConstraint=eastwest;align=left;spacingLeft=10;" parent="PGLoOLn-CX51Pk0NP94C-1207" vertex="1">
          <mxGeometry y="80" width="130" height="20" as="geometry" />
        </mxCell>
        <mxCell id="PGLoOLn-CX51Pk0NP94C-1217" value="+ detail 0/1" style="shape=partialRectangle;html=1;whiteSpace=wrap;connectable=0;fillColor=none;align=left;spacingLeft=10;" parent="PGLoOLn-CX51Pk0NP94C-1216" vertex="1">
          <mxGeometry width="130" height="20" as="geometry" />
        </mxCell>
        <mxCell id="PGLoOLn-CX51Pk0NP94C-1218" value="" style="shape=partialRectangle;html=1;whiteSpace=wrap;collapsible=0;dropTarget=0;pointerEvents=0;fillColor=none;strokeColor=none;points=[[0,0.5],[1,0.5]];portConstraint=eastwest;align=left;spacingLeft=10;" parent="PGLoOLn-CX51Pk0NP94C-1207" vertex="1">
          <mxGeometry y="100" width="130" height="20" as="geometry" />
        </mxCell>
        <mxCell id="PGLoOLn-CX51Pk0NP94C-1219" value="+ id" style="shape=partialRectangle;html=1;whiteSpace=wrap;connectable=0;fillColor=none;align=left;spacingLeft=10;" parent="PGLoOLn-CX51Pk0NP94C-1218" vertex="1">
          <mxGeometry width="130" height="20" as="geometry" />
        </mxCell>
        <mxCell id="PGLoOLn-CX51Pk0NP94C-1220" value="" style="shape=partialRectangle;html=1;whiteSpace=wrap;collapsible=0;dropTarget=0;pointerEvents=0;fillColor=none;strokeColor=none;points=[[0,0.5],[1,0.5]];portConstraint=eastwest;align=left;spacingLeft=10;" parent="PGLoOLn-CX51Pk0NP94C-1207" vertex="1">
          <mxGeometry y="120" width="130" height="20" as="geometry" />
        </mxCell>
        <mxCell id="PGLoOLn-CX51Pk0NP94C-1221" value="+ prop{}" style="shape=partialRectangle;html=1;whiteSpace=wrap;connectable=0;fillColor=none;align=left;spacingLeft=10;" parent="PGLoOLn-CX51Pk0NP94C-1220" vertex="1">
          <mxGeometry width="130" height="20" as="geometry" />
        </mxCell>
        <mxCell id="PGLoOLn-CX51Pk0NP94C-1222" value="" style="shape=partialRectangle;html=1;whiteSpace=wrap;collapsible=0;dropTarget=0;pointerEvents=0;fillColor=none;strokeColor=none;points=[[0,0.5],[1,0.5]];portConstraint=eastwest;align=left;spacingLeft=10;" parent="PGLoOLn-CX51Pk0NP94C-1207" vertex="1">
          <mxGeometry y="140" width="130" height="20" as="geometry" />
        </mxCell>
        <mxCell id="PGLoOLn-CX51Pk0NP94C-1223" value="+propMapperList[]" style="shape=partialRectangle;html=1;whiteSpace=wrap;connectable=0;fillColor=none;align=left;spacingLeft=10;" parent="PGLoOLn-CX51Pk0NP94C-1222" vertex="1">
          <mxGeometry width="130" height="20" as="geometry" />
        </mxCell>
        <mxCell id="PGLoOLn-CX51Pk0NP94C-1224" value="" style="shape=partialRectangle;html=1;whiteSpace=wrap;collapsible=0;dropTarget=0;pointerEvents=0;fillColor=none;strokeColor=none;points=[[0,0.5],[1,0.5]];portConstraint=eastwest;align=left;spacingLeft=10;" parent="PGLoOLn-CX51Pk0NP94C-1207" vertex="1">
          <mxGeometry y="160" width="130" height="20" as="geometry" />
        </mxCell>
        <mxCell id="PGLoOLn-CX51Pk0NP94C-1225" value="+ parent" style="shape=partialRectangle;html=1;whiteSpace=wrap;connectable=0;fillColor=none;align=left;spacingLeft=10;" parent="PGLoOLn-CX51Pk0NP94C-1224" vertex="1">
          <mxGeometry width="130" height="20" as="geometry" />
        </mxCell>
        <mxCell id="PGLoOLn-CX51Pk0NP94C-1226" value="" style="shape=partialRectangle;html=1;whiteSpace=wrap;collapsible=0;dropTarget=0;pointerEvents=0;fillColor=none;strokeColor=none;points=[[0,0.5],[1,0.5]];portConstraint=eastwest;align=left;spacingLeft=10;" parent="PGLoOLn-CX51Pk0NP94C-1207" vertex="1">
          <mxGeometry y="180" width="130" height="20" as="geometry" />
        </mxCell>
        <mxCell id="PGLoOLn-CX51Pk0NP94C-1227" value="+ propField{}" style="shape=partialRectangle;html=1;whiteSpace=wrap;connectable=0;fillColor=none;align=left;spacingLeft=10;" parent="PGLoOLn-CX51Pk0NP94C-1226" vertex="1">
          <mxGeometry width="130" height="20" as="geometry" />
        </mxCell>
        <mxCell id="PGLoOLn-CX51Pk0NP94C-1228" value="" style="shape=partialRectangle;html=1;whiteSpace=wrap;collapsible=0;dropTarget=0;pointerEvents=0;fillColor=none;strokeColor=none;points=[[0,0.5],[1,0.5]];portConstraint=eastwest;align=left;spacingLeft=10;" parent="PGLoOLn-CX51Pk0NP94C-1207" vertex="1">
          <mxGeometry y="200" width="130" height="20" as="geometry" />
        </mxCell>
        <mxCell id="PGLoOLn-CX51Pk0NP94C-1229" value="" style="shape=partialRectangle;html=1;whiteSpace=wrap;connectable=0;fillColor=none;align=left;spacingLeft=10;" parent="PGLoOLn-CX51Pk0NP94C-1228" vertex="1">
          <mxGeometry width="130" height="20" as="geometry" />
        </mxCell>
        <mxCell id="PGLoOLn-CX51Pk0NP94C-1230" value="" style="shape=partialRectangle;html=1;whiteSpace=wrap;collapsible=0;dropTarget=0;pointerEvents=0;fillColor=none;strokeColor=none;points=[[0,0.5],[1,0.5]];portConstraint=eastwest;align=left;spacingLeft=10;" parent="PGLoOLn-CX51Pk0NP94C-1207" vertex="1">
          <mxGeometry y="220" width="130" height="20" as="geometry" />
        </mxCell>
        <mxCell id="PGLoOLn-CX51Pk0NP94C-1231" value="gerBodyElements()" style="shape=partialRectangle;html=1;whiteSpace=wrap;connectable=0;fillColor=none;align=left;spacingLeft=10;" parent="PGLoOLn-CX51Pk0NP94C-1230" vertex="1">
          <mxGeometry width="130" height="20" as="geometry" />
        </mxCell>
        <mxCell id="PGLoOLn-CX51Pk0NP94C-1232" value="" style="shape=partialRectangle;html=1;whiteSpace=wrap;collapsible=0;dropTarget=0;pointerEvents=0;fillColor=none;strokeColor=none;points=[[0,0.5],[1,0.5]];portConstraint=eastwest;align=left;spacingLeft=10;" parent="PGLoOLn-CX51Pk0NP94C-1207" vertex="1">
          <mxGeometry y="240" width="130" height="20" as="geometry" />
        </mxCell>
        <mxCell id="PGLoOLn-CX51Pk0NP94C-1233" value="push(String)" style="shape=partialRectangle;html=1;whiteSpace=wrap;connectable=0;fillColor=none;align=left;spacingLeft=10;" parent="PGLoOLn-CX51Pk0NP94C-1232" vertex="1">
          <mxGeometry width="130" height="20" as="geometry" />
        </mxCell>
        <mxCell id="PGLoOLn-CX51Pk0NP94C-1234" value="" style="shape=partialRectangle;html=1;whiteSpace=wrap;collapsible=0;dropTarget=0;pointerEvents=0;fillColor=none;strokeColor=none;points=[[0,0.5],[1,0.5]];portConstraint=eastwest;align=left;spacingLeft=10;" parent="PGLoOLn-CX51Pk0NP94C-1207" vertex="1">
          <mxGeometry y="260" width="130" height="20" as="geometry" />
        </mxCell>
        <mxCell id="PGLoOLn-CX51Pk0NP94C-1235" value="bodyBlockSplit()" style="shape=partialRectangle;html=1;whiteSpace=wrap;connectable=0;fillColor=none;align=left;spacingLeft=10;" parent="PGLoOLn-CX51Pk0NP94C-1234" vertex="1">
          <mxGeometry width="130" height="20" as="geometry" />
        </mxCell>
        <mxCell id="PGLoOLn-CX51Pk0NP94C-1236" value="" style="shape=partialRectangle;html=1;whiteSpace=wrap;collapsible=0;dropTarget=0;pointerEvents=0;fillColor=none;strokeColor=none;points=[[0,0.5],[1,0.5]];portConstraint=eastwest;align=left;spacingLeft=10;" parent="PGLoOLn-CX51Pk0NP94C-1207" vertex="1">
          <mxGeometry y="280" width="130" height="20" as="geometry" />
        </mxCell>
        <mxCell id="PGLoOLn-CX51Pk0NP94C-1237" value="analysis()" style="shape=partialRectangle;html=1;whiteSpace=wrap;connectable=0;fillColor=none;align=left;spacingLeft=10;" parent="PGLoOLn-CX51Pk0NP94C-1236" vertex="1">
          <mxGeometry width="130" height="20" as="geometry" />
        </mxCell>
        <mxCell id="PGLoOLn-CX51Pk0NP94C-1238" value="" style="shape=partialRectangle;html=1;whiteSpace=wrap;collapsible=0;dropTarget=0;pointerEvents=0;fillColor=none;strokeColor=none;points=[[0,0.5],[1,0.5]];portConstraint=eastwest;align=left;spacingLeft=10;" parent="PGLoOLn-CX51Pk0NP94C-1207" vertex="1">
          <mxGeometry y="300" width="130" height="20" as="geometry" />
        </mxCell>
        <mxCell id="PGLoOLn-CX51Pk0NP94C-1239" value="do(String)" style="shape=partialRectangle;html=1;whiteSpace=wrap;connectable=0;fillColor=none;align=left;spacingLeft=10;" parent="PGLoOLn-CX51Pk0NP94C-1238" vertex="1">
          <mxGeometry width="130" height="20" as="geometry" />
        </mxCell>
        <mxCell id="PGLoOLn-CX51Pk0NP94C-1240" value="" style="shape=partialRectangle;html=1;whiteSpace=wrap;collapsible=0;dropTarget=0;pointerEvents=0;fillColor=none;strokeColor=none;points=[[0,0.5],[1,0.5]];portConstraint=eastwest;align=left;spacingLeft=10;" parent="PGLoOLn-CX51Pk0NP94C-1207" vertex="1">
          <mxGeometry y="320" width="130" height="20" as="geometry" />
        </mxCell>
        <mxCell id="PGLoOLn-CX51Pk0NP94C-1241" value="getType()" style="shape=partialRectangle;html=1;whiteSpace=wrap;connectable=0;fillColor=none;align=left;spacingLeft=10;" parent="PGLoOLn-CX51Pk0NP94C-1240" vertex="1">
          <mxGeometry width="130" height="20" as="geometry" />
        </mxCell>
        <mxCell id="PGLoOLn-CX51Pk0NP94C-1260" value="" style="shape=partialRectangle;html=1;whiteSpace=wrap;connectable=0;fillColor=none;" parent="PGLoOLn-CX51Pk0NP94C-1240" vertex="1">
          <mxGeometry x="130" height="20" as="geometry" />
        </mxCell>
        <mxCell id="PGLoOLn-CX51Pk0NP94C-1242" value="" style="shape=partialRectangle;html=1;whiteSpace=wrap;collapsible=0;dropTarget=0;pointerEvents=0;fillColor=none;strokeColor=none;points=[[0,0.5],[1,0.5]];portConstraint=eastwest;align=left;spacingLeft=10;" parent="PGLoOLn-CX51Pk0NP94C-1207" vertex="1">
          <mxGeometry y="340" width="130" height="20" as="geometry" />
        </mxCell>
        <mxCell id="PGLoOLn-CX51Pk0NP94C-1243" value="getCheck(String)" style="shape=partialRectangle;html=1;whiteSpace=wrap;connectable=0;fillColor=none;align=left;spacingLeft=10;" parent="PGLoOLn-CX51Pk0NP94C-1242" vertex="1">
          <mxGeometry width="130" height="20" as="geometry" />
        </mxCell>
        <mxCell id="PGLoOLn-CX51Pk0NP94C-1244" value="" style="shape=partialRectangle;html=1;whiteSpace=wrap;collapsible=0;dropTarget=0;pointerEvents=0;fillColor=none;strokeColor=none;points=[[0,0.5],[1,0.5]];portConstraint=eastwest;align=left;spacingLeft=10;" parent="PGLoOLn-CX51Pk0NP94C-1207" vertex="1">
          <mxGeometry y="360" width="130" height="20" as="geometry" />
        </mxCell>
        <mxCell id="PGLoOLn-CX51Pk0NP94C-1245" value="getContentNode()" style="shape=partialRectangle;html=1;whiteSpace=wrap;connectable=0;fillColor=none;align=left;spacingLeft=10;" parent="PGLoOLn-CX51Pk0NP94C-1244" vertex="1">
          <mxGeometry width="130" height="20" as="geometry" />
        </mxCell>
        <mxCell id="PGLoOLn-CX51Pk0NP94C-1246" value="" style="shape=partialRectangle;html=1;whiteSpace=wrap;collapsible=0;dropTarget=0;pointerEvents=0;fillColor=none;strokeColor=none;points=[[0,0.5],[1,0.5]];portConstraint=eastwest;align=left;spacingLeft=10;" parent="PGLoOLn-CX51Pk0NP94C-1207" vertex="1">
          <mxGeometry y="380" width="130" height="20" as="geometry" />
        </mxCell>
        <mxCell id="PGLoOLn-CX51Pk0NP94C-1247" value="renderNode()" style="shape=partialRectangle;html=1;whiteSpace=wrap;connectable=0;fillColor=none;align=left;spacingLeft=10;" parent="PGLoOLn-CX51Pk0NP94C-1246" vertex="1">
          <mxGeometry width="130" height="20" as="geometry" />
        </mxCell>
        <mxCell id="PGLoOLn-CX51Pk0NP94C-1248" value="" style="shape=partialRectangle;html=1;whiteSpace=wrap;collapsible=0;dropTarget=0;pointerEvents=0;fillColor=none;strokeColor=none;points=[[0,0.5],[1,0.5]];portConstraint=eastwest;align=left;spacingLeft=10;" parent="PGLoOLn-CX51Pk0NP94C-1207" vertex="1">
          <mxGeometry y="400" width="130" height="20" as="geometry" />
        </mxCell>
        <mxCell id="PGLoOLn-CX51Pk0NP94C-1249" value="getText()" style="shape=partialRectangle;html=1;whiteSpace=wrap;connectable=0;fillColor=none;align=left;spacingLeft=10;" parent="PGLoOLn-CX51Pk0NP94C-1248" vertex="1">
          <mxGeometry width="130" height="20" as="geometry" />
        </mxCell>
        <mxCell id="PGLoOLn-CX51Pk0NP94C-1250" value="" style="shape=partialRectangle;html=1;whiteSpace=wrap;collapsible=0;dropTarget=0;pointerEvents=0;fillColor=none;strokeColor=none;points=[[0,0.5],[1,0.5]];portConstraint=eastwest;align=left;spacingLeft=10;" parent="PGLoOLn-CX51Pk0NP94C-1207" vertex="1">
          <mxGeometry y="420" width="130" height="20" as="geometry" />
        </mxCell>
        <mxCell id="PGLoOLn-CX51Pk0NP94C-1251" value="propRead(String)" style="shape=partialRectangle;html=1;whiteSpace=wrap;connectable=0;fillColor=none;align=left;spacingLeft=10;" parent="PGLoOLn-CX51Pk0NP94C-1250" vertex="1">
          <mxGeometry width="130" height="20" as="geometry" />
        </mxCell>
        <mxCell id="Zq7bVNBtA27nlLwL4iKC-13" style="edgeStyle=orthogonalEdgeStyle;rounded=0;orthogonalLoop=1;jettySize=auto;html=1;" parent="1" source="Zq7bVNBtA27nlLwL4iKC-7" target="Zq7bVNBtA27nlLwL4iKC-9" edge="1">
          <mxGeometry relative="1" as="geometry" />
        </mxCell>
        <mxCell id="PGLoOLn-CX51Pk0NP94C-38" value="TypeIndicator" style="swimlane;fontStyle=0;childLayout=stackLayout;horizontal=1;startSize=22;horizontalStack=0;resizeParent=1;resizeParentMax=0;resizeLast=0;collapsible=1;marginBottom=0;align=center;fontSize=14;rounded=0;html=1;fillColor=#ffffff;" parent="1" vertex="1">
          <mxGeometry x="1282.5" y="826" width="140" height="100" as="geometry" />
        </mxCell>
        <mxCell id="PGLoOLn-CX51Pk0NP94C-39" value="name" style="text;strokeColor=none;fillColor=#ffffff;spacingLeft=4;spacingRight=4;overflow=hidden;rotatable=0;points=[[0,0.5],[1,0.5]];portConstraint=eastwest;fontSize=12;" parent="PGLoOLn-CX51Pk0NP94C-38" vertex="1">
          <mxGeometry y="22" width="140" height="26" as="geometry" />
        </mxCell>
        <mxCell id="PGLoOLn-CX51Pk0NP94C-40" value="start" style="text;strokeColor=none;fillColor=#ffffff;spacingLeft=4;spacingRight=4;overflow=hidden;rotatable=0;points=[[0,0.5],[1,0.5]];portConstraint=eastwest;fontSize=12;" parent="PGLoOLn-CX51Pk0NP94C-38" vertex="1">
          <mxGeometry y="48" width="140" height="26" as="geometry" />
        </mxCell>
        <mxCell id="PGLoOLn-CX51Pk0NP94C-41" value="end" style="text;strokeColor=none;fillColor=#ffffff;spacingLeft=4;spacingRight=4;overflow=hidden;rotatable=0;points=[[0,0.5],[1,0.5]];portConstraint=eastwest;fontSize=12;" parent="PGLoOLn-CX51Pk0NP94C-38" vertex="1">
          <mxGeometry y="74" width="140" height="26" as="geometry" />
        </mxCell>
        <mxCell id="Zq7bVNBtA27nlLwL4iKC-7" value="Source Text" style="text;html=1;align=center;verticalAlign=middle;resizable=0;points=[];autosize=1;strokeColor=#000000;" parent="1" vertex="1">
          <mxGeometry x="290" y="1553" width="80" height="20" as="geometry" />
        </mxCell>
        <mxCell id="Zq7bVNBtA27nlLwL4iKC-14" style="edgeStyle=orthogonalEdgeStyle;rounded=0;orthogonalLoop=1;jettySize=auto;html=1;" parent="1" source="Zq7bVNBtA27nlLwL4iKC-9" target="Zq7bVNBtA27nlLwL4iKC-10" edge="1">
          <mxGeometry relative="1" as="geometry" />
        </mxCell>
        <mxCell id="Zq7bVNBtA27nlLwL4iKC-9" value="tokenize" style="text;html=1;align=center;verticalAlign=middle;resizable=0;points=[];autosize=1;strokeColor=#000000;" parent="1" vertex="1">
          <mxGeometry x="455" y="1553" width="60" height="20" as="geometry" />
        </mxCell>
        <mxCell id="Zq7bVNBtA27nlLwL4iKC-10" value="onionize" style="text;html=1;align=center;verticalAlign=middle;resizable=0;points=[];autosize=1;strokeColor=#000000;" parent="1" vertex="1">
          <mxGeometry x="633" y="1553" width="60" height="20" as="geometry" />
        </mxCell>
        <mxCell id="Zq7bVNBtA27nlLwL4iKC-15" value="replace keywords&lt;br&gt;&amp;nbsp;with spaces.." style="text;html=1;align=center;verticalAlign=middle;resizable=0;points=[];autosize=1;" parent="1" vertex="1">
          <mxGeometry x="430" y="1587" width="110" height="30" as="geometry" />
        </mxCell>
        <mxCell id="Zq7bVNBtA27nlLwL4iKC-16" value="provide iterate function" style="text;html=1;align=center;verticalAlign=middle;resizable=0;points=[];autosize=1;" parent="1" vertex="1">
          <mxGeometry x="595" y="1530" width="140" height="20" as="geometry" />
        </mxCell>
        <mxCell id="Zq7bVNBtA27nlLwL4iKC-20" style="edgeStyle=orthogonalEdgeStyle;rounded=0;orthogonalLoop=1;jettySize=auto;html=1;" parent="1" source="Zq7bVNBtA27nlLwL4iKC-18" target="Zq7bVNBtA27nlLwL4iKC-10" edge="1">
          <mxGeometry relative="1" as="geometry" />
        </mxCell>
        <mxCell id="Zq7bVNBtA27nlLwL4iKC-18" value="readSource" style="text;html=1;align=center;verticalAlign=middle;resizable=0;points=[];autosize=1;fillColor=#ffe6cc;strokeColor=#d79b00;" parent="1" vertex="1">
          <mxGeometry x="623" y="1636" width="80" height="20" as="geometry" />
        </mxCell>
        <mxCell id="Zq7bVNBtA27nlLwL4iKC-19" value="typeMark.startCheck&lt;br&gt;is Start?&lt;br&gt;- new AST_Unit&lt;br&gt;- result.push&lt;br&gt;while(1)&lt;br&gt;- readSource(inner)&lt;br&gt;- index +1&amp;nbsp;&lt;br&gt;- bind this.parent&lt;br&gt;- result.push&lt;br&gt;- endCheck - jump out" style="text;html=1;align=center;verticalAlign=middle;resizable=0;points=[];autosize=1;" parent="1" vertex="1">
          <mxGeometry x="598" y="1671" width="130" height="150" as="geometry" />
        </mxCell>
        <mxCell id="qi0_S_fqqf_jjRCVwyCZ-1" value="" style="endArrow=classic;html=1;exitX=1.008;exitY=0.167;exitDx=0;exitDy=0;exitPerimeter=0;entryX=1;entryY=0.72;entryDx=0;entryDy=0;entryPerimeter=0;" parent="1" source="Zq7bVNBtA27nlLwL4iKC-19" target="Zq7bVNBtA27nlLwL4iKC-19" edge="1">
          <mxGeometry width="50" height="50" relative="1" as="geometry">
            <mxPoint x="770" y="1597" as="sourcePoint" />
            <mxPoint x="820" y="1547" as="targetPoint" />
            <Array as="points">
              <mxPoint x="790" y="1696" />
              <mxPoint x="790" y="1779" />
            </Array>
          </mxGeometry>
        </mxCell>
        <mxCell id="qi0_S_fqqf_jjRCVwyCZ-2" value="/* &lt;br&gt;function a(){&lt;br&gt;var a=12;&lt;br&gt;}&lt;br&gt;*/" style="text;html=1;align=left;verticalAlign=middle;resizable=0;points=[];autosize=1;fontColor=#808080;" parent="1" vertex="1">
          <mxGeometry x="290" y="1456" width="80" height="80" as="geometry" />
        </mxCell>
        <mxCell id="qi0_S_fqqf_jjRCVwyCZ-6" value="/* &lt;br&gt;function a[]()[][]{&lt;br&gt;var a[]=[]12[];[]&lt;br&gt;}[]&lt;br&gt;*/" style="text;html=1;align=left;verticalAlign=middle;resizable=0;points=[];autosize=1;fontColor=#808080;" parent="1" vertex="1">
          <mxGeometry x="445" y="1456" width="100" height="80" as="geometry" />
        </mxCell>
        <mxCell id="qi0_S_fqqf_jjRCVwyCZ-8" value="/* &lt;br&gt;function a()&lt;br&gt;{&lt;br&gt;[&lt;br&gt;var a=12;&lt;br&gt;]&lt;br&gt;}&lt;br&gt;*/" style="text;html=1;align=left;verticalAlign=middle;resizable=0;points=[];autosize=1;fontColor=#808080;" parent="1" vertex="1">
          <mxGeometry x="633" y="1410" width="80" height="120" as="geometry" />
        </mxCell>
        <mxCell id="qi0_S_fqqf_jjRCVwyCZ-9" value="AST_Unit System" style="text;html=1;align=center;verticalAlign=middle;resizable=0;points=[];autosize=1;fontColor=#808080;fontSize=50;" parent="1" vertex="1">
          <mxGeometry x="90" y="521" width="410" height="70" as="geometry" />
        </mxCell>
        <mxCell id="PGLoOLn-CX51Pk0NP94C-158" value="properties" style="swimlane;fontStyle=0;childLayout=stackLayout;horizontal=1;startSize=22;horizontalStack=0;resizeParent=1;resizeParentMax=0;resizeLast=0;collapsible=1;marginBottom=0;align=center;fontSize=14;rounded=0;html=1;fillColor=#ffffff;" parent="1" vertex="1">
          <mxGeometry x="1282.5" y="1064" width="140" height="178" as="geometry" />
        </mxCell>
        <mxCell id="PGLoOLn-CX51Pk0NP94C-159" value="arguements" style="text;strokeColor=none;fillColor=#ffffff;spacingLeft=4;spacingRight=4;overflow=hidden;rotatable=0;points=[[0,0.5],[1,0.5]];portConstraint=eastwest;fontSize=12;" parent="PGLoOLn-CX51Pk0NP94C-158" vertex="1">
          <mxGeometry y="22" width="140" height="26" as="geometry" />
        </mxCell>
        <mxCell id="PGLoOLn-CX51Pk0NP94C-160" value="description" style="text;strokeColor=none;fillColor=#ffffff;spacingLeft=4;spacingRight=4;overflow=hidden;rotatable=0;points=[[0,0.5],[1,0.5]];portConstraint=eastwest;fontSize=12;" parent="PGLoOLn-CX51Pk0NP94C-158" vertex="1">
          <mxGeometry y="48" width="140" height="26" as="geometry" />
        </mxCell>
        <mxCell id="PGLoOLn-CX51Pk0NP94C-161" value="name" style="text;strokeColor=none;fillColor=#ffffff;spacingLeft=4;spacingRight=4;overflow=hidden;rotatable=0;points=[[0,0.5],[1,0.5]];portConstraint=eastwest;fontSize=12;" parent="PGLoOLn-CX51Pk0NP94C-158" vertex="1">
          <mxGeometry y="74" width="140" height="26" as="geometry" />
        </mxCell>
        <mxCell id="PGLoOLn-CX51Pk0NP94C-162" value="value" style="text;strokeColor=none;fillColor=#ffffff;spacingLeft=4;spacingRight=4;overflow=hidden;rotatable=0;points=[[0,0.5],[1,0.5]];portConstraint=eastwest;fontSize=12;" parent="PGLoOLn-CX51Pk0NP94C-158" vertex="1">
          <mxGeometry y="100" width="140" height="26" as="geometry" />
        </mxCell>
        <mxCell id="PGLoOLn-CX51Pk0NP94C-163" value="statement" style="text;strokeColor=none;fillColor=#ffffff;spacingLeft=4;spacingRight=4;overflow=hidden;rotatable=0;points=[[0,0.5],[1,0.5]];portConstraint=eastwest;fontSize=12;" parent="PGLoOLn-CX51Pk0NP94C-158" vertex="1">
          <mxGeometry y="126" width="140" height="26" as="geometry" />
        </mxCell>
        <mxCell id="PGLoOLn-CX51Pk0NP94C-164" value="assignment" style="text;strokeColor=none;fillColor=#ffffff;spacingLeft=4;spacingRight=4;overflow=hidden;rotatable=0;points=[[0,0.5],[1,0.5]];portConstraint=eastwest;fontSize=12;" parent="PGLoOLn-CX51Pk0NP94C-158" vertex="1">
          <mxGeometry y="152" width="140" height="26" as="geometry" />
        </mxCell>
        <mxCell id="PGLoOLn-CX51Pk0NP94C-153" value="Property" style="swimlane;fontStyle=1;align=center;verticalAlign=top;childLayout=stackLayout;horizontal=1;startSize=26;horizontalStack=0;resizeParent=1;resizeParentMax=0;resizeLast=0;collapsible=1;marginBottom=0;rounded=0;fillColor=#ffffff;html=1;" parent="1" vertex="1">
          <mxGeometry x="1522.5" y="1076" width="160" height="154" as="geometry" />
        </mxCell>
        <mxCell id="PGLoOLn-CX51Pk0NP94C-154" value="+ type&#xa;+ startMark&#xa;+ endMark&#xa;+ body&#xa;+ codeFormat()&#xa;+ renderNode()" style="text;strokeColor=none;fillColor=#ffffff;align=left;verticalAlign=top;spacingLeft=4;spacingRight=4;overflow=hidden;rotatable=0;points=[[0,0.5],[1,0.5]];portConstraint=eastwest;" parent="PGLoOLn-CX51Pk0NP94C-153" vertex="1">
          <mxGeometry y="26" width="160" height="94" as="geometry" />
        </mxCell>
        <mxCell id="PGLoOLn-CX51Pk0NP94C-155" value="" style="line;strokeWidth=1;fillColor=#ffffff;align=left;verticalAlign=middle;spacingTop=-1;spacingLeft=3;spacingRight=3;rotatable=0;labelPosition=right;points=[];portConstraint=eastwest;" parent="PGLoOLn-CX51Pk0NP94C-153" vertex="1">
          <mxGeometry y="120" width="160" height="8" as="geometry" />
        </mxCell>
        <mxCell id="PGLoOLn-CX51Pk0NP94C-156" value="toString(ASTunit)" style="text;strokeColor=none;fillColor=#ffffff;align=left;verticalAlign=top;spacingLeft=4;spacingRight=4;overflow=hidden;rotatable=0;points=[[0,0.5],[1,0.5]];portConstraint=eastwest;" parent="PGLoOLn-CX51Pk0NP94C-153" vertex="1">
          <mxGeometry y="128" width="160" height="26" as="geometry" />
        </mxCell>
        <mxCell id="qi0_S_fqqf_jjRCVwyCZ-10" value="Source Text Processor" style="text;html=1;align=center;verticalAlign=middle;resizable=0;points=[];autosize=1;fontColor=#808080;fontSize=50;" parent="1" vertex="1">
          <mxGeometry x="110" y="1310" width="520" height="70" as="geometry" />
        </mxCell>
        <mxCell id="qi0_S_fqqf_jjRCVwyCZ-11" value="" style="rounded=0;whiteSpace=wrap;html=1;fontSize=50;align=left;fillColor=none;strokeColor=#9673a6;dashed=1;" parent="1" vertex="1">
          <mxGeometry x="840" y="1367" width="20" height="823" as="geometry" />
        </mxCell>
        <mxCell id="qi0_S_fqqf_jjRCVwyCZ-15" style="edgeStyle=orthogonalEdgeStyle;rounded=0;orthogonalLoop=1;jettySize=auto;html=1;fontSize=11;fontColor=#000000;" parent="1" source="qi0_S_fqqf_jjRCVwyCZ-12" target="qi0_S_fqqf_jjRCVwyCZ-13" edge="1">
          <mxGeometry relative="1" as="geometry" />
        </mxCell>
        <mxCell id="qi0_S_fqqf_jjRCVwyCZ-12" value="SourceText" style="text;html=1;align=center;verticalAlign=middle;resizable=0;points=[];autosize=1;fontSize=11;fontColor=#000000;" parent="1" vertex="1">
          <mxGeometry x="920" y="1710" width="80" height="20" as="geometry" />
        </mxCell>
        <mxCell id="R17UXGTrXX5c54FIc23q-20" value="AST_block" style="swimlane;fontStyle=0;childLayout=stackLayout;horizontal=1;startSize=22;horizontalStack=0;resizeParent=1;resizeParentMax=0;resizeLast=0;collapsible=1;marginBottom=0;align=center;fontSize=14;rounded=0;html=1;fillColor=#ffffff;" parent="1" vertex="1">
          <mxGeometry x="890" y="1451" width="140" height="70" as="geometry" />
        </mxCell>
        <mxCell id="R17UXGTrXX5c54FIc23q-21" value="startMark" style="text;strokeColor=none;fillColor=#ffffff;spacingLeft=4;spacingRight=4;overflow=hidden;rotatable=0;points=[[0,0.5],[1,0.5]];portConstraint=eastwest;fontSize=12;" parent="R17UXGTrXX5c54FIc23q-20" vertex="1">
          <mxGeometry y="22" width="140" height="26" as="geometry" />
        </mxCell>
        <mxCell id="R17UXGTrXX5c54FIc23q-22" value="endMark" style="text;strokeColor=none;fillColor=#ffffff;spacingLeft=4;spacingRight=4;overflow=hidden;rotatable=0;points=[[0,0.5],[1,0.5]];portConstraint=eastwest;fontSize=12;" parent="R17UXGTrXX5c54FIc23q-20" vertex="1">
          <mxGeometry y="48" width="140" height="22" as="geometry" />
        </mxCell>
        <mxCell id="R17UXGTrXX5c54FIc23q-14" value="AST_Tag" style="swimlane;fontStyle=0;childLayout=stackLayout;horizontal=1;startSize=22;horizontalStack=0;resizeParent=1;resizeParentMax=0;resizeLast=0;collapsible=1;marginBottom=0;align=center;fontSize=14;rounded=0;html=1;fillColor=#ffffff;" parent="1" vertex="1">
          <mxGeometry x="1070" y="1451" width="140" height="48" as="geometry" />
        </mxCell>
        <mxCell id="R17UXGTrXX5c54FIc23q-15" value="tag" style="text;strokeColor=none;fillColor=#ffffff;spacingLeft=4;spacingRight=4;overflow=hidden;rotatable=0;points=[[0,0.5],[1,0.5]];portConstraint=eastwest;fontSize=12;" parent="R17UXGTrXX5c54FIc23q-14" vertex="1">
          <mxGeometry y="22" width="140" height="26" as="geometry" />
        </mxCell>
        <mxCell id="R17UXGTrXX5c54FIc23q-1" value="AST" style="swimlane;fontStyle=0;childLayout=stackLayout;horizontal=1;startSize=22;horizontalStack=0;resizeParent=1;resizeParentMax=0;resizeLast=0;collapsible=1;marginBottom=0;align=center;fontSize=14;rounded=0;html=1;fillColor=#ffffff;" parent="1" vertex="1">
          <mxGeometry x="1240" y="1451" width="140" height="152" as="geometry" />
        </mxCell>
        <mxCell id="R17UXGTrXX5c54FIc23q-2" value="breaker[]" style="text;strokeColor=none;fillColor=#ffffff;spacingLeft=4;spacingRight=4;overflow=hidden;rotatable=0;points=[[0,0.5],[1,0.5]];portConstraint=eastwest;fontSize=12;" parent="R17UXGTrXX5c54FIc23q-1" vertex="1">
          <mxGeometry y="22" width="140" height="26" as="geometry" />
        </mxCell>
        <mxCell id="R17UXGTrXX5c54FIc23q-3" value="tokenize(String)" style="text;strokeColor=none;fillColor=#ffffff;spacingLeft=4;spacingRight=4;overflow=hidden;rotatable=0;points=[[0,0.5],[1,0.5]];portConstraint=eastwest;fontSize=12;" parent="R17UXGTrXX5c54FIc23q-1" vertex="1">
          <mxGeometry y="48" width="140" height="26" as="geometry" />
        </mxCell>
        <mxCell id="R17UXGTrXX5c54FIc23q-4" value="onionize(String)" style="text;strokeColor=none;fillColor=#ffffff;spacingLeft=4;spacingRight=4;overflow=hidden;rotatable=0;points=[[0,0.5],[1,0.5]];portConstraint=eastwest;fontSize=12;" parent="R17UXGTrXX5c54FIc23q-1" vertex="1">
          <mxGeometry y="74" width="140" height="26" as="geometry" />
        </mxCell>
        <mxCell id="R17UXGTrXX5c54FIc23q-5" value="listAll(ASTunit)" style="text;strokeColor=none;fillColor=#ffffff;spacingLeft=4;spacingRight=4;overflow=hidden;rotatable=0;points=[[0,0.5],[1,0.5]];portConstraint=eastwest;fontSize=12;" parent="R17UXGTrXX5c54FIc23q-1" vertex="1">
          <mxGeometry y="100" width="140" height="26" as="geometry" />
        </mxCell>
        <mxCell id="R17UXGTrXX5c54FIc23q-6" value="readSource[]" style="text;strokeColor=none;fillColor=#ffffff;spacingLeft=4;spacingRight=4;overflow=hidden;rotatable=0;points=[[0,0.5],[1,0.5]];portConstraint=eastwest;fontSize=12;" parent="R17UXGTrXX5c54FIc23q-1" vertex="1">
          <mxGeometry y="126" width="140" height="26" as="geometry" />
        </mxCell>
        <mxCell id="bPwfYALOh1zafL2a7w2y-26" style="edgeStyle=orthogonalEdgeStyle;rounded=0;orthogonalLoop=1;jettySize=auto;html=1;" edge="1" parent="1" source="Zq7bVNBtA27nlLwL4iKC-1" target="bPwfYALOh1zafL2a7w2y-23">
          <mxGeometry relative="1" as="geometry" />
        </mxCell>
        <mxCell id="Zq7bVNBtA27nlLwL4iKC-1" value="AST_blockLibrary" style="swimlane;fontStyle=0;childLayout=stackLayout;horizontal=1;startSize=22;horizontalStack=0;resizeParent=1;resizeParentMax=0;resizeLast=0;collapsible=1;marginBottom=0;align=center;fontSize=14;rounded=0;html=1;fillColor=#ffffff;" parent="1" vertex="1">
          <mxGeometry x="1400" y="1451" width="140" height="178" as="geometry" />
        </mxCell>
        <mxCell id="Zq7bVNBtA27nlLwL4iKC-2" value="parentheses ()" style="text;strokeColor=none;fillColor=#ffffff;spacingLeft=4;spacingRight=4;overflow=hidden;rotatable=0;points=[[0,0.5],[1,0.5]];portConstraint=eastwest;fontSize=12;" parent="Zq7bVNBtA27nlLwL4iKC-1" vertex="1">
          <mxGeometry y="22" width="140" height="26" as="geometry" />
        </mxCell>
        <mxCell id="Zq7bVNBtA27nlLwL4iKC-3" value="brackets []" style="text;strokeColor=none;fillColor=#ffffff;spacingLeft=4;spacingRight=4;overflow=hidden;rotatable=0;points=[[0,0.5],[1,0.5]];portConstraint=eastwest;fontSize=12;" parent="Zq7bVNBtA27nlLwL4iKC-1" vertex="1">
          <mxGeometry y="48" width="140" height="26" as="geometry" />
        </mxCell>
        <mxCell id="Zq7bVNBtA27nlLwL4iKC-4" value="brace {}" style="text;strokeColor=none;fillColor=#ffffff;spacingLeft=4;spacingRight=4;overflow=hidden;rotatable=0;points=[[0,0.5],[1,0.5]];portConstraint=eastwest;fontSize=12;" parent="Zq7bVNBtA27nlLwL4iKC-1" vertex="1">
          <mxGeometry y="74" width="140" height="26" as="geometry" />
        </mxCell>
        <mxCell id="Zq7bVNBtA27nlLwL4iKC-5" value="note_singleText //" style="text;strokeColor=none;fillColor=#ffffff;spacingLeft=4;spacingRight=4;overflow=hidden;rotatable=0;points=[[0,0.5],[1,0.5]];portConstraint=eastwest;fontSize=12;" parent="Zq7bVNBtA27nlLwL4iKC-1" vertex="1">
          <mxGeometry y="100" width="140" height="26" as="geometry" />
        </mxCell>
        <mxCell id="Zq7bVNBtA27nlLwL4iKC-6" value="note_multiText /* */" style="text;strokeColor=none;fillColor=#ffffff;spacingLeft=4;spacingRight=4;overflow=hidden;rotatable=0;points=[[0,0.5],[1,0.5]];portConstraint=eastwest;fontSize=12;" parent="Zq7bVNBtA27nlLwL4iKC-1" vertex="1">
          <mxGeometry y="126" width="140" height="26" as="geometry" />
        </mxCell>
        <mxCell id="bPwfYALOh1zafL2a7w2y-20" value="JSDoc /** */" style="text;strokeColor=none;fillColor=#ffffff;spacingLeft=4;spacingRight=4;overflow=hidden;rotatable=0;points=[[0,0.5],[1,0.5]];portConstraint=eastwest;fontSize=12;" vertex="1" parent="Zq7bVNBtA27nlLwL4iKC-1">
          <mxGeometry y="152" width="140" height="26" as="geometry" />
        </mxCell>
        <mxCell id="qi0_S_fqqf_jjRCVwyCZ-16" style="edgeStyle=orthogonalEdgeStyle;rounded=0;orthogonalLoop=1;jettySize=auto;html=1;fontSize=11;fontColor=#000000;" parent="1" source="qi0_S_fqqf_jjRCVwyCZ-13" target="qi0_S_fqqf_jjRCVwyCZ-14" edge="1">
          <mxGeometry relative="1" as="geometry" />
        </mxCell>
        <mxCell id="qi0_S_fqqf_jjRCVwyCZ-13" value="tokenize" style="text;html=1;align=center;verticalAlign=middle;resizable=0;points=[];autosize=1;fontSize=11;fontColor=#000000;" parent="1" vertex="1">
          <mxGeometry x="1037" y="1710" width="60" height="20" as="geometry" />
        </mxCell>
        <mxCell id="qi0_S_fqqf_jjRCVwyCZ-18" style="edgeStyle=orthogonalEdgeStyle;rounded=0;orthogonalLoop=1;jettySize=auto;html=1;fontSize=11;fontColor=#000000;" parent="1" source="qi0_S_fqqf_jjRCVwyCZ-14" target="qi0_S_fqqf_jjRCVwyCZ-17" edge="1">
          <mxGeometry relative="1" as="geometry" />
        </mxCell>
        <mxCell id="qi0_S_fqqf_jjRCVwyCZ-14" value="Split Array by space" style="text;html=1;align=center;verticalAlign=middle;resizable=0;points=[];autosize=1;fontSize=11;fontColor=#000000;" parent="1" vertex="1">
          <mxGeometry x="1125" y="1710" width="120" height="20" as="geometry" />
        </mxCell>
        <mxCell id="qi0_S_fqqf_jjRCVwyCZ-17" value="Structure builder&lt;br&gt;Create embedded array&amp;nbsp;" style="text;html=1;align=center;verticalAlign=middle;resizable=0;points=[];autosize=1;fontSize=11;fontColor=#000000;" parent="1" vertex="1">
          <mxGeometry x="1287.5" y="1705" width="130" height="30" as="geometry" />
        </mxCell>
        <mxCell id="CT4W2SYQuJkO0G9TFjYu-7" value="General Note&lt;br&gt;param&amp;nbsp;&lt;br&gt;return" style="text;html=1;align=center;verticalAlign=middle;resizable=0;points=[];autosize=1;" parent="1" vertex="1">
          <mxGeometry x="1302" y="661" width="90" height="50" as="geometry" />
        </mxCell>
        <mxCell id="bPwfYALOh1zafL2a7w2y-2" style="edgeStyle=orthogonalEdgeStyle;rounded=0;orthogonalLoop=1;jettySize=auto;html=1;" edge="1" parent="1" source="bPwfYALOh1zafL2a7w2y-1" target="qi0_S_fqqf_jjRCVwyCZ-17">
          <mxGeometry relative="1" as="geometry" />
        </mxCell>
        <mxCell id="bPwfYALOh1zafL2a7w2y-1" value="New AST_block" style="text;html=1;align=center;verticalAlign=middle;resizable=0;points=[];autosize=1;" vertex="1" parent="1">
          <mxGeometry x="1302.5" y="1780" width="100" height="20" as="geometry" />
        </mxCell>
        <mxCell id="bPwfYALOh1zafL2a7w2y-3" value="blockSpliter" style="text;html=1;align=center;verticalAlign=middle;resizable=0;points=[];autosize=1;" vertex="1" parent="1">
          <mxGeometry x="1248" y="1860" width="80" height="20" as="geometry" />
        </mxCell>
        <mxCell id="bPwfYALOh1zafL2a7w2y-5" style="edgeStyle=orthogonalEdgeStyle;rounded=0;orthogonalLoop=1;jettySize=auto;html=1;" edge="1" parent="1" source="bPwfYALOh1zafL2a7w2y-4" target="bPwfYALOh1zafL2a7w2y-3">
          <mxGeometry relative="1" as="geometry" />
        </mxCell>
        <mxCell id="bPwfYALOh1zafL2a7w2y-4" value="Source Text in tokenized" style="text;html=1;align=center;verticalAlign=middle;resizable=0;points=[];autosize=1;" vertex="1" parent="1">
          <mxGeometry x="1055" y="1860" width="150" height="20" as="geometry" />
        </mxCell>
        <mxCell id="bPwfYALOh1zafL2a7w2y-10" style="edgeStyle=orthogonalEdgeStyle;rounded=0;orthogonalLoop=1;jettySize=auto;html=1;" edge="1" parent="1" source="bPwfYALOh1zafL2a7w2y-6" target="bPwfYALOh1zafL2a7w2y-7">
          <mxGeometry relative="1" as="geometry" />
        </mxCell>
        <mxCell id="bPwfYALOh1zafL2a7w2y-6" value="split by space&lt;br&gt;" style="text;html=1;align=center;verticalAlign=middle;resizable=0;points=[];autosize=1;" vertex="1" parent="1">
          <mxGeometry x="1248" y="1936" width="90" height="20" as="geometry" />
        </mxCell>
        <mxCell id="bPwfYALOh1zafL2a7w2y-7" value="// build block structure&lt;br&gt;structureBuilder()" style="text;html=1;align=center;verticalAlign=middle;resizable=0;points=[];autosize=1;" vertex="1" parent="1">
          <mxGeometry x="1228" y="1990" width="130" height="30" as="geometry" />
        </mxCell>
        <mxCell id="bPwfYALOh1zafL2a7w2y-22" value="Block" style="swimlane;fontStyle=0;childLayout=stackLayout;horizontal=1;startSize=22;horizontalStack=0;resizeParent=1;resizeParentMax=0;resizeLast=0;collapsible=1;marginBottom=0;align=center;fontSize=14;rounded=0;html=1;fillColor=#ffffff;" vertex="1" parent="1">
          <mxGeometry x="1580" y="1569" width="190" height="48" as="geometry" />
        </mxCell>
        <mxCell id="bPwfYALOh1zafL2a7w2y-23" value="stringTypeInBlockLibrary" style="text;strokeColor=none;fillColor=#ffffff;spacingLeft=4;spacingRight=4;overflow=hidden;rotatable=0;points=[[0,0.5],[1,0.5]];portConstraint=eastwest;fontSize=12;" vertex="1" parent="bPwfYALOh1zafL2a7w2y-22">
          <mxGeometry y="22" width="190" height="26" as="geometry" />
        </mxCell>
        <mxCell id="R17UXGTrXX5c54FIc23q-8" value="ASTPool" style="swimlane;fontStyle=0;childLayout=stackLayout;horizontal=1;startSize=22;horizontalStack=0;resizeParent=1;resizeParentMax=0;resizeLast=0;collapsible=1;marginBottom=0;align=center;fontSize=14;rounded=0;html=1;fillColor=#ffffff;" parent="1" vertex="1">
          <mxGeometry x="1580" y="1450" width="140" height="100" as="geometry" />
        </mxCell>
        <mxCell id="R17UXGTrXX5c54FIc23q-9" value="list" style="text;strokeColor=none;fillColor=#ffffff;spacingLeft=4;spacingRight=4;overflow=hidden;rotatable=0;points=[[0,0.5],[1,0.5]];portConstraint=eastwest;fontSize=12;" parent="R17UXGTrXX5c54FIc23q-8" vertex="1">
          <mxGeometry y="22" width="140" height="26" as="geometry" />
        </mxCell>
        <mxCell id="R17UXGTrXX5c54FIc23q-10" value="push(elements)" style="text;strokeColor=none;fillColor=#ffffff;spacingLeft=4;spacingRight=4;overflow=hidden;rotatable=0;points=[[0,0.5],[1,0.5]];portConstraint=eastwest;fontSize=12;" parent="R17UXGTrXX5c54FIc23q-8" vertex="1">
          <mxGeometry y="48" width="140" height="26" as="geometry" />
        </mxCell>
        <mxCell id="R17UXGTrXX5c54FIc23q-11" value="get(String)" style="text;strokeColor=none;fillColor=#ffffff;spacingLeft=4;spacingRight=4;overflow=hidden;rotatable=0;points=[[0,0.5],[1,0.5]];portConstraint=eastwest;fontSize=12;" parent="R17UXGTrXX5c54FIc23q-8" vertex="1">
          <mxGeometry y="74" width="140" height="26" as="geometry" />
        </mxCell>
      </root>
    </mxGraphModel>
  </diagram>
</mxfile>
